<?xml version="1.0" encoding="UTF-8"?>
<svg id="svg-opencollar-logo" width="2489" height="197" version="1.1" viewBox="0 0 2489 197" xmlns="http://www.w3.org/2000/svg">
  <title id="title-opencollar-logo">Open Collar Logo</title>
  <defs>
    <style type="text/css">@import url('https://fonts.googleapis.com/css?family=Catamaran');</style>
  </defs>
  <g id="layer-opencollar-logo" transform="matrix(1.4 0 0 1.4 62 -124)">
    <g transform="translate(0,1.2)">
      <path id="left-green" d="m71 220 71-123h-142z" fill="#dc322f" Fill="#859900"/>
      <path id="middle-yellow" d="m160 100 71 123h-142z" fill="none" stroke="#859900" stroke-width="8" Fill="#B58900"/>
      <path id="right-blue" d="m249 220 71-123h-142z" fill="#268bd2" Fill="#268BD2"/>
    </g>
  </g>
  <g transform="matrix(.95 0 0 .95 96 20)" fill="#002b36" stroke-width="1px" aria-label="OPEN COLLAR">
    <path d="m594 24q9.5 10 14 26 5.1 15 5.1 34t-5.2 34q-5.1 15-14 25-9.6 11-23 16-13 5.3-30 5.3-16 0-30-5.4-13-5.4-23-16-9.4-10-14-25-5-15-5-34t5-34 15-26q9.2-10 23-16 14-5.4 30-5.4 17 0 30 5.5 13 5.4 23 16zm-1.9 60q0-30-14-47-14-16-37-16-24 0-37 16t-13 47 14 47 37 16 37-16q14-16 14-47z"/>
    <path d="m796 53q0 10-3.6 19-3.5 8.7-10 15-8 8-19 12t-28 4h-21v58h-21v-155h42q14 0 24 2.4 9.7 2.3 17 7.3 8.9 5.9 14 15 4.9 8.9 4.9 22zm-21 0.52q0-8-2.8-14-2.8-5.9-8.5-9.7-5-3.2-11-4.6-6.4-1.5-16-1.5h-20v62h17q12 0 20-2.2 7.8-2.3 13-7.2 4.9-5 6.9-11 2.1-5.5 2.1-12z"/>
    <path d="m973 161h-102v-155h102v18h-82v42h82v18h-82v58h82z"/>
    <path d="m1172 161h-26l-74-139v139h-19v-155h32l67 127v-127h19z"/>
    <path d="m1504 150q-5.7 2.5-10 4.7-4.6 2.2-12 4.6-6.4 2-14 3.3-7.4 1.5-16 1.5-17 0-31-4.7-14-4.8-24-15-10-9.9-16-25-5.6-15-5.6-36 0-19 5.4-34t16-26q9.9-10 24-15 14-5.3 31-5.3 12 0 25 3 12 3 28 11v24h-1.6q-13-11-25-16-13-4.9-27-4.9-12 0-21 3.9-9.4 3.7-17 12-7.2 7.8-11 20-4 12-4 27 0 16 4.4 28 4.5 12 11 19 7.3 7.7 17 11 9.8 3.6 21 3.6 15 0 28-5.1t24-15h1.5z"/>
    <path d="m1697 24q9.5 10 14 26 5.1 15 5.1 34t-5.2 34q-5.1 15-14 25-9.6 11-23 16-13 5.3-30 5.3-16 0-30-5.4-13-5.4-23-16-9.4-10-14-25-5-15-5-34t5-34 15-26q9.2-10 23-16 14-5.4 30-5.4 17 0 30 5.5 13 5.4 23 16zm-1.9 60q0-30-14-47-14-16-37-16-24 0-37 16t-13 47 14 47 37 16 37-16 14-47z"/>
    <path d="m1896 161h-98v-155h21v137h77z"/>
    <path d="m2062 161h-98v-155h21v137h77z"/>
    <path d="m2253 161h-22l-15-43h-67l-15 43h-21l56-155h27zm-44-61-27-76-27 76z"/>
    <path d="m2453 161h-27l-52-62h-29v62h-21v-155h43q14 0 23 1.9 9.4 1.8 17 6.5 8.4 5.3 13 13 4.8 8 4.8 20 0 17-8.4 28t-23 17zm-48-111q0-6.7-2.4-12-2.3-5.2-7.7-8.7-4.5-3-11-4.2-6.1-1.2-14-1.2h-24v59h21q9.8 0 17-1.7 7.3-1.8 12-6.5 4.7-4.4 6.9-10 2.3-5.7 2.3-14z"/>
  </g>
</svg>
